<svg width="640" height="635" viewBox="0 0 640 635" fill="none" xmlns="http://www.w3.org/2000/svg">
<path d="M344.667 70.666C344.267 71.3327 343.333 71.9993 342.533 71.9993C341.867 71.9993 341.333 71.3327 341.333 70.666C341.333 69.866 342.267 69.3326 343.467 69.3326C344.533 69.3326 345.067 69.866 344.667 70.666ZM388 78.666C388 79.3327 387.467 79.9993 386.8 79.9993C386 79.9993 385.067 79.3327 384.667 78.666C384.267 77.866 384.8 77.3326 385.867 77.3326C387.067 77.3326 388 77.866 388 78.666ZM429.333 94.7993C429.333 95.466 428.4 95.9993 427.333 95.9993C425.333 95.9993 424.667 94.3993 426.133 92.9327C427.2 91.866 429.333 93.066 429.333 94.7993ZM466.8 117.999C466.667 119.999 463.6 119.599 462.933 117.599C462.533 116.399 463.2 115.866 464.533 116.266C465.867 116.399 466.8 117.199 466.8 117.999ZM501.333 146.666C501.333 148.399 500.4 149.333 498.667 149.333C496.933 149.333 496 148.399 496 146.666C496 144.933 496.933 143.999 498.667 143.999C500.4 143.999 501.333 144.933 501.333 146.666ZM528 181.333C528 183.066 527.067 183.999 525.333 183.999C523.6 183.999 522.667 183.066 522.667 181.333C522.667 179.599 523.6 178.666 525.333 178.666C527.067 178.666 528 179.599 528 181.333ZM549.067 219.999C549.333 223.733 549.067 223.999 545.6 223.733C542.533 223.466 541.867 222.933 542.4 220.933C542.8 219.599 544.267 217.866 545.867 217.333C547.333 216.666 548.667 216.133 548.667 216.133C548.8 215.999 548.933 217.866 549.067 219.999ZM562.667 262.666C562.667 266.266 562.267 266.666 558.667 266.666C555.733 266.666 554.667 265.999 554.667 264.266C554.667 262.933 555.333 261.199 556.267 260.266C557.2 259.333 558.933 258.666 560.267 258.666C562 258.666 562.667 259.733 562.667 262.666ZM568 301.999C568 301.999 568.533 303.999 569.2 306.399C570 309.066 570 310.399 569.2 309.999C568.533 309.466 568 309.866 568 310.533C568 312.666 564.133 312.266 561.867 310.133C558.533 306.666 560.667 301.866 565.6 301.866C566.933 301.866 568 301.866 568 301.999ZM66.6667 334.666C66.6667 335.333 67.6 335.599 68.6667 335.199C69.8667 334.666 71.0667 335.599 71.8667 337.599C72.5333 339.333 74 341.599 75.2 342.533C76.4 343.466 77.3333 345.466 77.3333 346.799C77.3333 348.266 78 349.333 78.6667 349.333C79.4667 349.333 80 351.066 80 353.333C80 355.466 80.6667 357.333 81.3333 357.333C82.1333 357.333 82.6667 359.066 82.6667 361.333C82.6667 363.466 83.3333 365.333 84 365.333C84.8 365.333 85.3333 367.066 85.3333 369.333C85.3333 371.466 86 373.333 86.6667 373.333C87.4667 373.333 88 374.133 88 375.066C88 376.799 99.2 381.333 103.867 381.333C105.333 381.333 106.667 381.866 106.667 382.666C106.667 383.333 109.2 383.999 112.4 383.999C116.667 383.999 117.6 384.399 116 385.466C114.4 386.666 114.533 386.799 116.933 386.266C118.533 385.866 122.267 387.066 125.333 388.799C128.4 390.533 132 391.999 133.333 391.999C134.8 391.999 136.267 392.533 136.667 393.333C137.067 393.999 139.6 394.666 142.133 394.666C144.667 394.666 146.667 395.199 146.667 395.999C146.667 396.666 149.2 397.333 152.4 397.333C156.533 397.333 157.467 397.733 156 398.666C154.933 399.333 154.667 399.999 155.333 399.999C156.933 399.999 159.6 405.733 160.8 411.866L161.733 416.399L143.2 415.599C133.067 415.066 120 414.399 114.4 413.866C106 413.066 104 413.333 104 414.799C104 416.266 103.733 416.266 102.667 414.666C100.133 410.799 101.2 417.199 104 422.933C105.467 425.999 106.667 430.533 106.667 432.933C106.667 437.199 106.8 437.333 112 437.333C114.933 437.333 117.333 437.866 117.333 438.666C117.333 439.333 119.867 439.999 122.933 439.999C126 439.999 128 440.399 127.6 440.933C127.067 441.333 128 442.399 129.6 443.199C131.2 444.133 133.067 447.066 134.133 450.533L135.867 456.266L121.2 455.333C110.533 454.666 106 454.933 104.667 455.999C103.6 456.933 102.667 457.199 102.667 456.799C102.667 456.266 99.7333 458.666 96.2667 462.266C92.8 465.733 89.0667 468.799 88 469.066C87.0667 469.333 85.4667 470.399 84.6667 471.599C83.6 472.933 82.1333 473.333 80.2667 472.799C77.7333 471.999 77.3333 470.799 77.3333 465.199C77.3333 461.599 78 458.666 78.6667 458.666C79.4667 458.666 80 457.733 80 456.533C80 455.466 82.5333 451.999 85.6 449.066C90.4 444.533 90.9333 443.466 89.6 441.199C88.6667 439.866 88 437.466 88 436.133C88 434.666 87.4667 433.066 86.6667 432.666C86 432.266 85.3333 430.399 85.3333 428.533C85.3333 426.266 84.8 425.466 83.7333 426.133C82.9333 426.666 82.6667 426.533 83.0667 425.866C83.4667 425.066 83.3333 423.733 82.6667 422.666C81.7333 421.066 81.0667 421.333 78.9333 423.733C77.4667 425.333 75.7333 426.666 74.8 426.666C74 426.666 72.6667 427.866 71.7333 429.333C70.8 430.799 69.3333 431.999 68.4 431.999C67.4667 431.999 66.6667 432.666 66.6667 433.466C66.6667 434.133 67.3333 434.399 68.2667 433.866C69.2 433.333 69.3333 433.466 68.8 434.399C68.2667 435.199 67.2 435.599 66.2667 435.199C65.3333 434.933 61.4667 437.733 57.4667 441.333C53.3333 445.199 49.3333 447.733 48.4 447.333C47.3333 447.066 46.9333 447.333 47.3333 447.999C48.2667 449.599 45.7333 452.399 42.4 453.733C41.0667 454.133 40 455.466 40 456.399C40 457.466 38.8 458.266 37.0667 458.133C34.6667 457.999 33.7333 456.799 32.8 452.933C32.1333 450.266 31.0667 447.999 30.4 447.999C29.8667 447.999 29.3333 446.799 29.3333 445.333C29.3333 443.866 30 442.666 30.6667 442.666C31.4667 442.666 32 441.466 32 439.999C32 438.533 32.5333 437.333 33.0667 437.333C33.7333 437.333 35.0667 435.733 36.1333 433.599C37.2 431.599 39.0667 429.066 40.2667 427.866C41.6 426.666 42.6667 424.666 42.6667 423.466C42.6667 422.266 43.3333 421.333 44 421.333C44.8 421.333 45.3333 420.133 45.3333 418.533C45.3333 417.066 45.8667 416.133 46.5333 416.666C47.2 417.066 48.1333 416.799 48.6667 415.999C49.2 415.199 50 414.933 50.5333 415.199C51.0667 415.599 52.2667 415.199 53.3333 414.399C54.9333 413.333 54.9333 413.199 53.0667 413.866C51.7333 414.266 50.6667 413.999 50.6667 413.199C50.6667 411.333 53.3333 406.533 55.6 404.266C56.5333 403.199 57.0667 401.866 56.5333 401.199C56.1333 400.533 56.5333 400.133 57.6 400.266C58.5333 400.533 59.7333 401.599 60.4 402.666C61.0667 403.866 61.2 403.466 60.8 401.466C60.1333 398.399 63.4667 390.533 65.7333 389.599C66.2667 389.333 66.6667 387.999 66.6667 386.533C66.6667 385.199 67.3333 383.999 68 383.999C68.8 383.999 69.3333 383.066 69.3333 381.999C69.3333 380.933 68.8 379.999 68 379.999C67.3333 379.999 66.6667 377.866 66.6667 375.333C66.6667 372.799 66.1333 370.666 65.3333 370.666C64.6667 370.666 64 368.799 64 366.666C64 364.399 63.4667 362.666 62.6667 362.666C62 362.666 61.3333 361.199 61.3333 359.466C61.3333 357.599 60.8 355.733 60 355.333C58.2667 354.266 58.2667 343.866 60.1333 339.066C61.8667 334.399 66.6667 331.066 66.6667 334.666ZM568.533 350.133C568.267 353.599 565.067 357.333 562.667 357.333C560 357.333 557.333 353.733 557.333 350.133C557.333 346.666 559.6 345.599 565.467 346.399C568.267 346.799 568.933 347.599 568.533 350.133ZM555.2 388.799C556.667 389.333 557.333 391.333 557.333 394.799C557.333 399.599 557.067 399.999 553.6 399.999C549.067 399.999 546.667 397.866 546.667 393.733C546.667 389.599 550.933 387.199 555.2 388.799ZM538 428.133C537.6 428.533 538.267 429.733 539.333 430.666C540.4 431.599 541.333 433.999 541.333 435.999C541.333 440.133 537.2 441.999 531.333 440.533C528.533 439.866 528 438.933 528 434.799C528 430.666 528.533 429.599 531.733 428.533C536 426.933 538.8 426.799 538 428.133ZM138.667 445.866C138.667 446.266 138.133 446.933 137.333 447.333C136.667 447.733 136 447.466 136 446.799C136 445.999 136.667 445.333 137.333 445.333C138.133 445.333 138.667 445.599 138.667 445.866ZM131.467 460.533C134.133 463.333 133.733 469.733 130.667 473.066C129.2 474.666 128 476.399 128 477.066C128 479.199 121.6 477.733 118.667 474.933C115.067 471.599 113.733 463.599 116.133 460.799C118.533 458.133 128.8 457.999 131.467 460.533ZM515.467 465.866C517.467 467.999 518 474.666 516.133 474.666C515.467 474.666 514.667 473.999 514.4 473.066C514 472.133 513.467 472.399 512.933 473.866C512.4 475.199 512.533 475.866 513.333 475.333C514.133 474.933 514.667 475.066 514.667 475.733C514.667 479.599 504.533 478.666 503.333 474.666C501.867 469.866 501.467 466.666 502.533 467.333C503.2 467.599 504.4 467.066 505.333 465.999C507.467 463.466 512.933 463.466 515.467 465.866ZM159.2 481.466C158.533 482.533 159.2 482.799 164.4 483.199C166.133 483.333 170.667 491.199 170.667 494.133C170.667 495.066 171.333 495.999 172.267 496.266C175.6 497.466 168.4 514.533 164.4 514.666C163.6 514.666 162.667 515.333 162.4 516.133C162 517.199 158.667 517.733 153.6 517.599C144.933 517.466 141.867 515.733 137.733 508.266C134.667 502.933 136.533 487.999 140.267 487.999C140.8 487.999 141.333 486.799 141.333 485.333C141.333 483.333 142.267 482.666 145.067 482.533C147.067 482.533 149.733 482.133 150.933 481.599C154.4 480.133 160.133 480.133 159.2 481.466ZM480 494.399C480 494.933 479.333 496.133 478.667 496.799C477.733 497.733 477.867 498.266 479.2 498.266C480.267 498.266 480.933 497.733 480.533 497.066C480.133 496.533 481.067 495.999 482.533 495.999C485.067 495.999 487.2 499.599 487.333 503.999C487.467 507.199 481.733 511.999 478.4 511.733C474 511.333 470 506.799 469.733 501.599C469.6 499.199 470.133 497.599 470.8 497.999C471.467 498.533 472 498.266 472 497.599C472 496.933 473.333 495.733 475.067 494.933C478.667 493.199 480 493.066 480 494.399ZM197.067 511.199C202.133 513.866 205.067 517.733 206 522.933C207.067 528.533 204.8 534.933 202.133 533.866C201.067 533.466 199.867 533.866 199.2 534.799C198.533 535.999 198.933 536.133 200.4 535.599C201.867 535.066 202.667 535.466 202.667 536.399C202.667 537.333 199.867 539.466 196.533 540.933C190.267 543.866 190.267 543.866 183.467 541.199C175.6 538.266 173.333 534.666 173.333 525.066C173.333 519.599 174 517.866 177.733 513.999C181.2 510.266 183.067 509.466 187.733 509.466C190.933 509.333 195.067 510.133 197.067 511.199ZM171.6 526.266C171.2 527.599 170.933 526.533 170.933 523.999C170.933 521.466 171.2 520.399 171.6 521.599C171.867 522.933 171.867 525.066 171.6 526.266ZM448.533 521.733C451.733 524.933 452.133 528.933 449.733 533.866C447.733 538.266 447.067 538.666 441.6 538.666C435.067 538.666 430.133 535.333 433.467 533.199C434.933 532.266 434.933 531.733 433.733 530.933C431.467 529.466 434.533 522.399 436.933 523.333C437.867 523.599 438.933 523.199 439.467 522.399C440 521.466 439.867 521.333 438.933 521.866C438 522.399 437.333 522.133 437.333 521.466C437.333 519.466 446.533 519.599 448.533 521.733ZM238.933 533.733C243.2 537.466 245.867 547.066 243.733 551.199C240.267 557.733 236.4 559.999 228.933 559.999C224 559.999 221.067 559.333 220 557.999C218.533 556.266 218 556.266 216.933 557.599C216.133 558.799 216 558.666 216.533 557.066C216.933 555.733 216.4 553.866 215.333 552.799C213.067 550.533 212.533 537.999 214.667 539.333C215.467 539.733 216 539.466 216 538.666C216 537.866 217.333 535.733 219.067 533.999C223.2 529.466 233.867 529.333 238.933 533.733ZM406.267 537.333C410.4 538.799 413.333 543.333 413.333 548.133C413.333 552.266 407.467 557.333 402.667 557.333C398.533 557.333 392.533 552.799 391.867 549.199C391.2 546.266 394.933 539.199 397.867 537.733C401.733 535.866 401.733 535.866 406.267 537.333ZM280 545.333C278.267 546.533 278.267 546.666 280 546.666C282.8 546.666 285.333 552.799 285.333 559.066C285.333 563.199 284.533 565.066 281.733 567.466C279.6 569.199 276.8 570.799 275.333 570.799C270.267 571.199 264.667 570.399 264.267 569.199C264 568.533 262.933 567.999 262 567.999C260 567.999 258.667 565.066 258.667 560.266C258.667 557.466 258.4 557.066 257.333 558.666C256.267 560.266 256 559.999 256 557.599C256 555.866 256.533 554.799 257.2 555.199C257.867 555.733 258.8 554.133 259.333 551.866C259.867 549.599 261.2 547.466 262.267 547.066C263.733 546.533 263.733 545.999 262.667 545.333C261.733 544.799 265.733 544.266 271.467 544.133C278.8 543.999 281.333 544.399 280 545.333ZM364.4 548.266C369.6 551.066 371.067 553.466 370.933 558.799C370.667 564.133 366.933 569.466 362.667 570.399C357.733 571.466 349.333 566.266 349.333 562.133C349.333 560.933 348.8 559.999 348 559.999C347.333 559.999 346.667 558.666 346.667 556.933C346.667 554.533 346.933 554.399 348 555.999C349.067 557.599 349.333 557.333 349.467 554.666C349.6 552.799 349.6 550.933 349.467 550.266C349.467 549.733 350.533 549.333 352 549.333C353.467 549.333 354.667 548.666 354.667 547.999C354.667 546.133 360.8 546.266 364.4 548.266ZM322 550.666C321.6 551.333 321.867 551.999 322.667 551.999C325.867 551.999 328 555.999 328 561.733C328 566.666 327.333 568.133 323.333 571.733C320.4 574.533 317.6 575.866 315.333 575.733C313.467 575.599 312 575.066 312 574.666C312 574.266 310.267 573.199 308 572.266C304.267 570.533 304 569.999 304 563.199C304 553.333 307.333 549.466 316.4 549.466C320.4 549.333 322.533 549.866 322 550.666Z" fill="#FF000A"/>
</svg>
