<svg width="312" height="222" viewBox="0 0 312 222" fill="none" xmlns="http://www.w3.org/2000/svg">
<path d="M-255 9.12603C-177.324 -8.31674 55.9883 -11.1392 65.8243 97.8845C75.6603 206.908 129.182 162.654 149.403 206.909C229.219 381.591 -255 206.909 -255 206.909V9.12603Z" fill="#0040BE"/>
<path d="M-5.54541 399.048C-21.888 344.117 -16.6029 181.932 103.338 181.288C223.278 180.643 176.659 140.964 225.928 129.432C420.402 83.9152 211.401 410.27 211.401 410.27L-5.54541 399.048Z" fill="#FF947A"/>
<circle cx="-11.4556" cy="131.203" r="49.2009" fill="#FFB46E"/>
<rect x="136.967" y="116.113" width="4.92009" height="32.8006" transform="rotate(-36.8574 136.967 116.113)" fill="#0040BE"/>
<rect x="159.108" y="86.5146" width="4.92009" height="32.8006" transform="rotate(-14.5148 159.108 86.5146)" fill="#0040BE"/>
<rect x="191.935" y="99.2222" width="4.92009" height="32.8006" transform="rotate(7.22738 191.935 99.2222)" fill="#0040BE"/>
</svg>
